<?xml version="1.0" encoding="utf-8"?>
<!-- Generator: Adobe Illustrator 26.0.0, SVG Export Plug-In . SVG Version: 6.00 Build 0)  -->
<svg version="1.1" id="Ebene_1" xmlns="http://www.w3.org/2000/svg" xmlns:xlink="http://www.w3.org/1999/xlink" x="0px" y="0px"
	 viewBox="0 0 596.57 122.91" style="enable-background:new 0 0 596.57 122.91;" xml:space="preserve">
<style type="text/css">
	.st0{fill:#1D766B;}
	.st1{fill:#92304C;}
	.st2{fill:#070809;}
</style>
<g>
	<path class="st0" d="M53.77,119.89c-0.91-0.23-1.7-0.82-1.92-1.52c-1.32-4.13-2.02-9.36-2.82-15.42
		c-1.96-14.79-5.26-35.47-18.77-57.66c-0.56-0.91,1.46-1.65,2.05-0.74c13.96,21.3,19.48,43.67,21.48,58.71
		c0.79,5.94,1.47,11.06,2.72,14.96c0.3,0.94-0.5,1.74-1.78,1.78C54.4,120,54.08,119.96,53.77,119.89z"/>
	<path class="st0" d="M53.7,121.89c-0.56,0-1.12-0.16-1.61-0.49C20.85,100.42,1.41,69.46,0.07,38.6
		C-0.49,25.48,2.23,12.68,7.95,1.57L8.76,0l3.1,0.05C43,5.77,64.28,27.99,66.07,56.65c0.1,1.6-2.04,1.44-2.14-0.15
		C62.33,31,39.88,11.64,12.21,6.02c-4.65,9.79-6.84,20.92-6.35,32.33c1.25,29.03,19.74,58.28,49.46,78.24
		c1.33,0.89,1.68,2.69,0.79,4.02C55.55,121.44,54.63,121.89,53.7,121.89z"/>
	<path class="st1" d="M63.28,120.08C102.97,98.6,133,48.14,112.29,4.09c-0.67-1.43-0.07-3.13,1.33-3.81
		c1.4-0.68,3.09-0.08,3.76,1.35c10.34,21.99,9.75,47.32-1.64,71.34c-10.23,21.55-30.45,37.41-51.88,49.01
		C63.44,122.2,61.9,120.82,63.28,120.08z"/>
	<path class="st1" d="M67.87,34.21c-0.52,0-1.04-0.14-1.52-0.43c-1.36-0.84-1.79-2.62-0.95-3.99c9.2-14.93,26.84-25.77,48.41-29.74
		c1.56-0.29,3.08,0.75,3.37,2.32c0.29,1.57-0.75,3.08-2.32,3.37C95.2,9.37,78.56,19.5,70.34,32.83
		C69.79,33.72,68.84,34.21,67.87,34.21z"/>
</g>
<g>
	<g>
		<path class="st2" d="M565.96,100.88c-12.4,0-20.94-4.78-26.9-15.04c-3.37-5.81-4.87-14.09-4.87-19.72
			c0-11.43,4.63-20.57,13.76-27.17c5.59-4.01,11.81-6.05,18.48-6.05c16,0,26.13,10.31,30.1,30.66c0.12,0.57,0,1.15-0.37,1.6
			c-0.59,0.73-1.67,1.05-3.5,1.05h-40.37c-1.63,0-2.86-1.31-2.9-3.05c-0.03-1.6,1.04-3.26,3.13-3.34l35.46,0
			c-3.38-15.06-9.89-21.8-20.99-21.8c-6.42,0-12.04,2.35-16.71,6.99c-4.69,4.65-7.44,10.55-8.17,17.52v2.55
			c-0.27,11.13,3.66,19.62,11.68,25.26c3.79,2.67,8,4.03,12.5,4.03c7.54,0,17.56-3.22,23.04-12.27l0.04-0.06l0.04-0.06
			c0.79-1,1.61-1.5,2.45-1.5c0.67,0,1.27,0.33,1.67,0.92c0.49,0.73,0.58,1.75,0.24,2.59C589.74,93.78,578.05,100.88,565.96,100.88z"
			/>
	</g>
	<g>
		<path class="st2" d="M264.07,100.62c-10.55,0-19.28-4.97-25.96-14.77c-3.98-5.86-5.99-12.34-5.99-19.26c0-9.7,3.13-17.81,9.3-24.1
			c6.03-6.2,13.66-9.34,22.65-9.34c7.15,0,13.25,1.78,18.12,5.3c4.07,2.94,7.84,9.08,9.72,12.49c0.51,0.92,0.5,1.98-0.05,2.9
			c-0.62,1.05-1.83,1.76-3.02,1.76c-1.04,0-1.94-0.54-2.46-1.47c-6.51-11.74-12.48-16.1-22.05-16.1c-6.61,0-12.08,2.48-16.73,7.58
			c-4.63,5.08-7.18,11.32-7.59,18.55c-0.36,5.97,0.76,11.56,3.34,16.63c2.61,5.29,6.39,9.17,11.23,11.56
			c2.99,1.5,6.22,2.27,9.61,2.27c5.72,0,16.22-1.51,22.34-11.61c0.79-1.26,1.75-1.45,2.25-1.45c0.7,0,1.34,0.34,1.75,0.94
			c0.48,0.69,0.57,1.64,0.24,2.52l-0.04,0.1l-0.06,0.09C284.08,95.87,275.87,100.62,264.07,100.62z"/>
	</g>
	<g>
		<path class="st2" d="M330.15,100.26c-0.29,0-0.57,0-0.86-0.01c-8.84-0.21-16.47-3.42-22.68-9.54c-6.52-6.39-9.72-14.41-9.53-23.85
			c0.19-9.46,3.44-17.5,9.65-23.9c6.08-6.27,13.47-9.44,21.97-9.44c0.21,0,0.42,0,0.63,0.01c9.03,0.16,16.68,3.29,22.76,9.31
			c6.32,6.28,9.53,14.38,9.53,24.06c0,9.63-3.17,17.73-9.41,24.09C346.16,97.14,338.74,100.26,330.15,100.26z M330.06,38.62
			c-0.24,0-0.48,0-0.72,0.01c-7.03,0.2-12.98,3.02-17.66,8.41c-4.71,5.41-7.01,12.1-6.83,19.86c0.18,7.65,2.57,14.37,7.1,19.98
			c4.6,5.72,10.05,8.5,16.66,8.5c0.22,0,0.44,0,0.66-0.01c7.08-0.19,12.99-3.03,17.58-8.44c4.63-5.45,6.98-12.18,6.98-20.01
			c0-7.94-2.29-14.73-6.81-20.18C342.48,41.28,336.93,38.62,330.06,38.62z"/>
	</g>
	<g>
		<path class="st2" d="M499.1,100.55c-1.97,0-3.18-1.28-3.61-2.38l-29.71-59.74c-0.24-0.4-0.35-1.53-0.04-2.52
			c0.32-1.03,1.03-1.82,2.05-2.29c0.54-0.25,1.09-0.38,1.62-0.38c1.63,0,2.76,1.16,3.23,2.16l26.57,53.7
			c5.46-9.9,29.59-53.66,30.01-54.35c0.72-1.2,1.63-1.38,2.11-1.38c0.74,0,1.43,0.43,1.8,1.12c0.44,0.81,0.37,1.83-0.16,2.69
			l-30.17,61.09C502.38,99.31,501.02,100.55,499.1,100.55z"/>
	</g>
	<g>
		<g>
			<path class="st2" d="M377.89,122.91c-1.19,0-2.42-1.03-2.49-2.99c0-0.04,0.07-75.69,0.07-94.26c0.23-10.86,2.93-14,6.06-17.64
				c4.29-4.99,9.96-7.62,16.41-7.62c1.32,0,2.38,0.11,3.08,0.18l0.44,0.04c1.52,0.13,2.54,1.64,2.54,2.98
				c0,1.74-0.83,2.93-2.17,3.09l-0.16,0.02c-0.15,0.02-0.3,0.04-2.94,0.34c-10.64,1.22-15.87,7.47-15.55,18.57l0.01,7.55h7.86
				c2.17,0,3.14,1.72,3.14,3.42c0,1.53-1.27,3.1-3.4,3.1h-7.89c-0.28,9.71-2.16,75.06-2.54,80.23
				C380.21,121.99,379.01,122.91,377.89,122.91z"/>
		</g>
		<g>
			<path class="st2" d="M368.64,39.7c-2.24,0-3.26-1.69-3.26-3.27c0-1.37,1.22-3.26,3.51-3.26h10.2l-0.39,6.53H368.64z"/>
		</g>
	</g>
	<g>
		<path class="st2" d="M197.65,100.88c-12.4,0-20.94-4.78-26.9-15.04c-3.37-5.81-4.87-14.09-4.87-19.72
			c0-11.43,4.63-20.57,13.76-27.17c5.59-4.01,11.81-6.05,18.48-6.05c16,0,26.13,10.31,30.1,30.66c0.12,0.57,0,1.15-0.37,1.6
			c-0.59,0.73-1.67,1.05-3.5,1.05h-40.37c-1.63,0-2.86-1.31-2.9-3.05c-0.03-1.6,1.04-3.26,3.13-3.34l35.46,0
			c-3.38-15.06-9.89-21.8-20.99-21.8c-6.42,0-12.04,2.35-16.71,6.99c-4.69,4.65-7.44,10.55-8.17,17.52v2.55
			c-0.27,11.13,3.66,19.62,11.68,25.26c3.79,2.67,8,4.03,12.5,4.03c7.54,0,17.56-3.22,23.04-12.27l0.04-0.06l0.04-0.06
			c0.79-1,1.61-1.5,2.45-1.5c0.67,0,1.27,0.33,1.67,0.92c0.49,0.73,0.58,1.75,0.24,2.59C221.43,93.78,209.74,100.88,197.65,100.88z"
			/>
	</g>
	<g>
		<path class="st2" d="M452.72,77.8c-0.09,5.98-2.73,10.58-7.92,13.8c-4.34,2.71-9.45,4.06-15.34,4.06
			c-5.99,0-11.15-1.35-15.48-4.06c-5.23-3.27-7.94-7.87-8.13-13.8c-0.19-5.52,2.57-9.97,8.27-13.34c4.67-2.76,9.73-4.19,15.2-4.29
			c3.56-0.07,10.69,0.9,13.92,2.07c1.61,0.55,2.11-1.09,0.47-1.89c-2.88-1.17-11.02-2.72-14.39-2.79
			c-6.83-0.1-13.03,1.41-18.59,4.53c-6.69,3.79-10.16,9.04-10.39,15.75c-0.24,6.66,3.23,11.91,10.39,15.75
			c5.66,3.02,11.85,4.58,18.59,4.69c9.71,0.1,17.51-2.64,23.4-8.22v6.84c0,0.92,0.84,2.51,2.67,2.51s2.84-1.58,2.84-2.51V77.02
			c0-15.35-0.05-23.56-0.14-24.63c-0.57-6.5-4.43-11.44-11.59-14.81c-5.51-2.61-11.69-3.86-18.52-3.76
			c-6.6,0.1-10.93,1.33-16.37,4.15c-0.87,0.45-2.15,1.69-1.03,3.74c1.13,2.08,3.29,1.23,4.11,0.77c4.49-2.49,11.4-3.93,17.29-3.93
			c9.99,0,14.84,1.71,19.04,8.92c1.13,1.94,1.7,5.31,1.7,10.11"/>
		<g>
			<path class="st2" d="M455.39,101.11c-2.48,0-3.81-2.11-3.81-3.64v-4.35c-5.73,4.56-13.03,6.87-21.75,6.87c-0.18,0-0.35,0-0.53,0
				c-6.9-0.1-13.32-1.73-19.11-4.82c-7.54-4.05-11.24-9.7-10.99-16.79c0.25-7.1,3.94-12.72,10.96-16.7
				c5.78-3.25,12.26-4.81,19.17-4.68c8.09,0.16,11.77,1.65,14.72,2.85l0.14,0.06c1.5,0.73,1.89,2.05,1.51,2.98
				c-0.34,0.83-1.38,1.5-2.84,1l-0.57-0.21c-2.84-1.04-4.91-1.8-12.87-1.8c-0.04,0-0.08,0-0.11,0c-5.07,0-9.99,1.4-14.62,4.13
				c-5.37,3.17-7.89,7.21-7.71,12.33c0.18,5.58,2.66,9.79,7.6,12.88c4.13,2.58,9.14,3.89,14.88,3.89c5.65,0,10.61-1.31,14.74-3.89
				c4.88-3.03,7.29-7.23,7.38-12.85c0-0.53,0-20.48,0-20.79c-0.04-4.27-0.56-7.29-1.54-8.97c-3.77-6.48-7.82-8.36-18.06-8.36
				c-6.02,0-12.59,1.49-16.74,3.79c-0.57,0.31-2.05,1-3.54,0.56c-0.89-0.26-1.63-0.88-2.12-1.79c-0.72-1.33-0.63-2.4-0.43-3.06
				c0.4-1.32,1.49-2,1.93-2.23c5.81-3.02,10.39-4.17,16.87-4.27c6.95-0.1,13.37,1.2,19.02,3.87c7.52,3.55,11.64,8.84,12.24,15.74
				c0.1,1.12,0.15,9.21,0.15,24.73v19.88C459.37,98.99,457.85,101.11,455.39,101.11z M453.85,88v9.48c0,0.21,0.28,1.37,1.54,1.37
				c1.17,0,1.71-1.05,1.71-1.37V77.6c0-18.98-0.08-23.82-0.14-24.53c-0.53-6.12-4.11-10.66-10.95-13.89
				c-5.33-2.52-11.38-3.76-18.02-3.65c-6.17,0.1-10.33,1.15-15.86,4.02c-0.31,0.16-0.68,0.48-0.81,0.88
				c-0.11,0.36-0.03,0.8,0.25,1.31c0.27,0.5,0.57,0.64,0.76,0.69c0.55,0.16,1.29-0.09,1.81-0.37c4.46-2.48,11.47-4.08,17.84-4.08
				c9.62,0,15.35,1.47,20.02,9.48c1.2,2.05,1.8,5.35,1.85,10.09c0,0.2,0,20.61,0,20.82v0.02c-0.1,6.36-2.95,11.32-8.45,14.75
				c-4.49,2.81-9.86,4.24-15.94,4.24c-6.17,0-11.58-1.43-16.08-4.24c-5.55-3.47-8.46-8.42-8.66-14.73
				c-0.2-5.94,2.77-10.77,8.83-14.35c4.99-2.95,10.29-4.45,15.77-4.45c0.04,0,0.07,0,0.11,0c3.12,0,5.4,0.12,7.19,0.32
				c-1.93-0.35-4.3-0.61-7.32-0.67c-6.54-0.14-12.6,1.34-18.01,4.39c-6.38,3.61-9.59,8.46-9.81,14.8
				c-0.22,6.25,2.98,11.06,9.79,14.71c5.47,2.92,11.55,4.45,18.07,4.55c9.34,0.09,16.96-2.56,22.6-7.91L453.85,88z"/>
		</g>
	</g>
</g>
</svg>
