<?xml version="1.0" encoding="utf-8"?>
<!-- Generator: Adobe Illustrator 23.0.2, SVG Export Plug-In . SVG Version: 6.00 Build 0)  -->
<svg version="1.1" id="Ebene_1" xmlns="http://www.w3.org/2000/svg" xmlns:xlink="http://www.w3.org/1999/xlink" x="0px" y="0px"
	 viewBox="0 0 292 51" style="enable-background:new 0 0 292 51;" xml:space="preserve">
<style type="text/css">
	.st0{fill:#000;}
</style>
<g>
	<g>
		<g>
			<rect x="111.2" y="7.3" class="st0" width="13.7" height="1"/>
		</g>
		<g>
			<rect x="111.2" y="41.9" class="st0" width="13.7" height="1"/>
		</g>
		<path class="st0" d="M113.9,29.5l-2.4,5.5h-2.4l9-20.5l8.8,20.5h-2.4l-2.3-5.5H113.9z M118.1,19.7l-3.3,7.8h6.6L118.1,19.7z"/>
		<path class="st0" d="M134.2,14.7l15.2,16V15.6h2.2V36L136.4,20v15h-2.2V14.7z"/>
		<path class="st0" d="M163.8,29.5l-2.4,5.5h-2.4l9-20.5l8.8,20.5h-2.4l-2.3-5.5H163.8z M168,19.7l-3.3,7.8h6.6L168,19.7z"/>
		<path class="st0" d="M186.3,33.1h5.4v2h-7.6V15.6h2.2V33.1z"/>
		<path class="st0" d="M197.4,15.6h2.5l5,8.7l5-8.7h2.5l-6.4,11.1v8.4h-2.2v-8.4L197.4,15.6z"/>
		<path class="st0" d="M224.4,35.1h-2.2V17.6h-4.7v-2h11.7v2h-4.8V35.1z"/>
		<path class="st0" d="M238.8,35.1h-2.2V15.6h2.2V35.1z"/>
		<path class="st0" d="M262.5,19.8c-1.6-1.6-3.7-2.6-6-2.6c-4.4,0-7.9,3.8-7.9,8.1s3.5,8.1,7.9,8.1c2.2,0,4.3-1,5.9-2.6v2.7
			c-1.7,1.2-3.8,1.9-5.8,1.9c-5.5,0-10.2-4.5-10.2-10c0-5.6,4.6-10.2,10.2-10.2c2.2,0,4.1,0.6,5.8,1.9V19.8z"/>
		<path class="st0" d="M273.2,29.5l-2.4,5.5h-2.4l9-20.5l8.8,20.5h-2.4l-2.3-5.5H273.2z M277.4,19.7l-3.3,7.8h6.6L277.4,19.7z"/>
		<polygon class="st0" points="66.6,17.6 66.6,15.6 59.6,15.6 59.6,17.6 62,17.6 62,33.1 59.6,33.1 59.6,35.1 66.6,35.1 66.6,33.1 
			64.2,33.1 64.2,17.6 		"/>
		<path class="st0" d="M92.7,25.4c0,5.6-4.6,10.1-10.2,10.1S72.4,31,72.4,25.4c0-5.6,4.6-10.1,10.2-10.1S92.7,19.8,92.7,25.4z
			 M74.6,25.3c0,4.4,3.6,8.1,8,8.1c4.4,0,8-3.7,8-8.1c0-4.4-3.5-8.1-8-8.1C78.1,17.3,74.6,20.9,74.6,25.3z"/>
	</g>
</g>
<g>
	<defs>
		<path id="SVGID_1_" d="M42.9,27.7L42.5,20L39,16.1l0.5-1.7l-5.4-5L28.7,12l-0.8-4.4l-4.7-0.4l-3.4,4.9L16.7,9l-4.4,2.7l1.4,5.4
			l-3.9-2.4l-4,8.3l1.2,8.9l5.5,3.3L10,37.1l5.1,4.8l6.5-1.2l5.3,3.2l6.9-2.2l-0.5-3.1l6.3-1.2l2.2-4.3l-1.9-3.6L42.9,27.7z
			 M40.9,20.6l0.3,6.2l-2.2,1.3l-2.2-4.2l1.6-6L40.9,20.6z M29.1,23.8l0.5,3l-1.5-0.9L29.1,23.8z M28,22.3l-2.5,2l-8.3-5l5.1-2.5
			L28,22.3z M23.9,16.1l3.5-1.7l1.1,6.2L23.9,16.1z M18.4,17l1.7-2.4l1.1,1.1L18.4,17z M24.3,25.4L18.7,30l-2.5-9.4L24.3,25.4z
			 M25.7,26.3l0.3,0.2l-5.3,10.8l-1.5-5.6L25.7,26.3z M19,37.2l-3.8-2.3l2.7-2.2L19,37.2z M22,38.2l5.4-10.9l2.6,1.6l0.7,4.1
			L22,38.2z M30.9,34.7l0.4,2.5l-6.8,1.2L30.9,34.7z M31.8,30l2,1.2l-1.6,1L31.8,30z M31.4,27.9l-0.9-5.5l6.6-5.4l-1.9,7.1l2.5,4.8
			l-2.4,1.4L31.4,27.9z M31.1,19.9l3.8-7.6l2.6,2.4L31.1,19.9z M33.5,11.4l-3.6,7.3L29,13.6L33.5,11.4z M24,8.8l2.6,0.2l0.6,3.7
			l-4.5,2.2L21,13.2L24,8.8z M16.5,11l2.5,2.4l-3.3,4.8l-1.5-5.8L16.5,11z M10.4,17l3.6,2.2l-6.1,3L10.4,17z M7.5,24.1l6.2-3
			l-5.5,8.1L7.5,24.1z M8.8,31.1L15,22l2.4,9l-3.7,3L8.8,31.1z M12.4,37.2l1.4-1.1l5.7,3.4l-4,0.7L12.4,37.2z M31.9,40.5l-4.8,1.6
			L24,40.2l7.7-1.4L31.9,40.5z M33,37l-0.5-3.1l2.9-1.7l3.9,2.4L38.4,36L33,37z M39.9,33.1L39.9,33.1l-3.1-1.8l1.6-1L39.9,33.1z"/>
	</defs>
	<use xlink:href="#SVGID_1_"  style="overflow:visible;fill:#000;"/>
	<clipPath id="SVGID_2_">
		<use xlink:href="#SVGID_1_"  style="overflow:visible;"/>
	</clipPath>
</g>
</svg>
