<svg width="144" height="144" viewBox="0 0 144 144" fill="none" xmlns="http://www.w3.org/2000/svg">
<path d="M86.5 12C86.7083 12 86.8125 12.2187 86.8125 12.6458C86.8125 13.0625 86.7083 13.2708 86.5 13.2708C83.4271 13.2708 81.2708 14.0208 80.0208 15.5208C78.7708 17.0208 78.1458 19.599 78.1458 23.25V80.1458C78.1458 80.2812 77.9635 80.3854 77.6042 80.4583C77.2396 80.526 76.9896 80.4896 76.8542 80.3542L28.4167 20.7708L26.6042 18.75V67.8125C26.6042 71.4531 27.2083 74.0104 28.4167 75.4792C29.6354 76.9375 31.75 77.6667 34.75 77.6667C34.9583 77.6667 35.0625 77.8854 35.0625 78.3125C35.0625 78.7448 34.9583 78.9583 34.75 78.9583C33.026 78.9583 31.7083 78.9271 30.7917 78.8542L25.6458 78.75L20.3958 78.8542C19.4635 78.9271 18.0677 78.9583 16.2083 78.9583C16.0677 78.9583 16 78.7448 16 78.3125C16 77.8854 16.0677 77.6667 16.2083 77.6667C19.276 77.6667 21.3802 76.9583 22.5208 75.5417C23.6719 74.1146 24.25 71.5365 24.25 67.8125V16.5C21.75 14.349 19.1771 13.2708 16.5417 13.2708C16.3177 13.2708 16.2083 13.0625 16.2083 12.6458C16.2083 12.2187 16.3177 12 16.5417 12L20.3958 12.1042C21.1719 12.1771 22.276 12.2083 23.7083 12.2083C24.9271 12.2083 25.9271 12.1771 26.7083 12.1042C27.5 12.0365 28.1094 12 28.5417 12C29.0417 12 29.4479 12.125 29.7708 12.375C30.0885 12.625 30.4635 13.1406 30.8958 13.9167C31.6719 15.2083 32.526 16.4271 33.4583 17.5625L75.7917 70.1667V23.25C75.7917 19.599 75.2135 17.0208 74.0625 15.5208C72.9219 14.0208 70.8542 13.2708 67.8542 13.2708C67.7135 13.2708 67.6458 13.0625 67.6458 12.6458C67.6458 12.2187 67.7135 12 67.8542 12L71.9375 12.1042C74.0729 12.2448 75.7812 12.3125 77.0625 12.3125C78.2812 12.3125 80.0312 12.2448 82.3125 12.1042L86.5 12Z" fill="white"/>
<path d="M127.243 129.986C127.535 129.986 127.68 130.205 127.68 130.632C127.68 131.064 127.535 131.278 127.243 131.278C125.962 131.278 123.894 131.21 121.035 131.07C118.326 130.919 116.326 130.84 115.035 130.84C113.535 130.84 111.566 130.919 109.139 131.07C106.857 131.21 105.144 131.278 103.993 131.278C103.712 131.278 103.576 131.064 103.576 130.632C103.576 130.205 103.712 129.986 103.993 129.986C106.92 129.986 109.024 129.726 110.305 129.195C111.597 128.653 112.243 127.747 112.243 126.465C112.243 125.465 111.852 124.07 111.076 122.278L100.993 100.528H75.4928L68.2012 118.09C67.2012 120.523 66.7012 122.523 66.7012 124.09C66.7012 126.174 67.5553 127.684 69.2637 128.611C70.9824 129.528 73.6699 129.986 77.3262 129.986C77.6699 129.986 77.847 130.205 77.847 130.632C77.847 131.064 77.6699 131.278 77.3262 131.278C76.0345 131.278 74.1699 131.21 71.7428 131.07C69.0345 130.919 66.6803 130.84 64.6803 130.84C62.8887 130.84 60.7741 130.919 58.347 131.07C56.2064 131.21 54.4564 131.278 53.097 131.278C52.7533 131.278 52.5762 131.064 52.5762 130.632C52.5762 130.205 52.7533 129.986 53.097 129.986C55.097 129.986 56.7897 129.632 58.1803 128.924C59.5814 128.205 60.9095 126.919 62.1595 125.07C63.4095 123.21 64.748 120.564 66.1803 117.132L88.5762 63.2363C88.7116 63.028 88.9408 62.9238 89.2637 62.9238C89.5814 62.9238 89.7741 63.028 89.847 63.2363L114.722 116.59C116.357 120.247 117.816 123.018 119.097 124.903C120.389 126.794 121.66 128.111 122.91 128.861C124.16 129.611 125.602 129.986 127.243 129.986ZM76.347 98.5905H100.035L87.4928 71.6947L76.347 98.5905Z" fill="white"/>
<mask id="mask0_861_3709" style="mask-type:luminance" maskUnits="userSpaceOnUse" x="37" y="44" width="54" height="73">
<path d="M37.4414 44.3867H90.7747V116.387H37.4414V44.3867Z" fill="white"/>
</mask>
<g mask="url(#mask0_861_3709)">
<mask id="mask1_861_3709" style="mask-type:luminance" maskUnits="userSpaceOnUse" x="38" y="45" width="53" height="71">
<path d="M74.446 45.1934L90.5449 54.9069L54.1595 115.199L38.0605 105.48L74.446 45.1934Z" fill="white"/>
</mask>
<g mask="url(#mask1_861_3709)">
<path d="M74.446 45.1934L90.5449 54.9069L54.1439 115.225L38.0449 105.506L74.446 45.1934Z" fill="#59595B"/>
</g>
</g>
<mask id="mask2_861_3709" style="mask-type:luminance" maskUnits="userSpaceOnUse" x="38" y="53" width="39" height="39">
<path d="M38.7754 53.7188H76.1087V91.0521H38.7754V53.7188Z" fill="white"/>
</mask>
<g mask="url(#mask2_861_3709)">
<mask id="mask3_861_3709" style="mask-type:luminance" maskUnits="userSpaceOnUse" x="39" y="54" width="37" height="37">
<path d="M53.2279 54.791L75.1706 68.0358L61.6758 90.3848L39.7383 77.1452L53.2279 54.791Z" fill="white"/>
</mask>
<g mask="url(#mask3_861_3709)">
<path d="M53.2285 54.791L75.1712 68.0358L61.6712 90.4004L39.7285 77.1608L53.2285 54.791Z" fill="#59595B"/>
</g>
</g>
<mask id="mask4_861_3709" style="mask-type:luminance" maskUnits="userSpaceOnUse" x="65" y="53" width="37" height="36">
<path d="M65.4414 53.7188H101.441V88.3854H65.4414V53.7188Z" fill="white"/>
</mask>
<g mask="url(#mask4_861_3709)">
<mask id="mask5_861_3709" style="mask-type:luminance" maskUnits="userSpaceOnUse" x="66" y="54" width="35" height="34">
<path d="M78.4525 54.791L100.39 68.0358L88.3379 87.9994L66.4004 74.7598L78.4525 54.791Z" fill="white"/>
</mask>
<g mask="url(#mask5_861_3709)">
<path d="M78.4525 54.791L100.369 68.0202L88.3171 87.9889L66.4004 74.7598L78.4525 54.791Z" fill="#59595B"/>
</g>
</g>
<path d="M32.2135 123.756L99.3905 28.1053" stroke="white" stroke-width="2"/>
</svg>
