<svg width="144" height="144" viewBox="0 0 144 144" fill="none" xmlns="http://www.w3.org/2000/svg">
<path d="M32.2135 123.756L99.3905 28.1053" stroke="white" stroke-width="2"/>
<path d="M26.6042 18.75L28.4167 20.7708L59.0881 58.5L64.5 61.5L66.4029 58.5L33.4583 17.5625C32.526 16.4271 31.6719 15.2083 30.8958 13.9167C30.4635 13.1406 30.0885 12.625 29.7708 12.375C29.4479 12.125 29.0417 12 28.5417 12C28.1094 12 27.5 12.0365 26.7083 12.1042C25.9271 12.1771 24.9271 12.2083 23.7083 12.2083C22.276 12.2083 21.1719 12.1771 20.3958 12.1042L16.5417 12C16.3177 12 16.2083 12.2187 16.2083 12.6458C16.2083 13.0625 16.3177 13.2708 16.5417 13.2708C19.1771 13.2708 21.75 14.349 24.25 16.5V67.8125C24.25 71.5365 23.6719 74.1146 22.5208 75.5417C21.3802 76.9583 19.276 77.6667 16.2083 77.6667C16.0677 77.6667 16 77.8854 16 78.3125C16 78.7448 16.0677 78.9583 16.2083 78.9583C18.0677 78.9583 19.4635 78.9271 20.3958 78.8542L25.6458 78.75L30.7917 78.8542C31.7083 78.9271 33.026 78.9583 34.75 78.9583C34.9583 78.9583 35.0625 78.7448 35.0625 78.3125C35.0625 77.8854 34.9583 77.6667 34.75 77.6667C31.75 77.6667 29.6354 76.9375 28.4167 75.4792C27.2083 74.0104 26.6042 71.4531 26.6042 67.8125V18.75Z" fill="white"/>
<path d="M128.104 130.632C128.104 130.205 127.958 129.986 127.667 129.986C126.026 129.986 124.583 129.611 123.333 128.861C122.083 128.111 120.812 126.794 119.521 124.903C118.24 123.018 116.781 120.247 115.146 116.59L96.2216 76L92.6009 81.74L100.458 98.5905H76.7708L82.688 84.3119L80.6961 83.2198L66.6042 117.132C65.1719 120.564 63.8333 123.21 62.5833 125.07C61.3333 126.919 60.0052 128.205 58.6042 128.924C57.2135 129.632 55.5208 129.986 53.5208 129.986C53.1771 129.986 53 130.205 53 130.632C53 131.064 53.1771 131.278 53.5208 131.278C54.8802 131.278 56.6302 131.21 58.7708 131.07C61.1979 130.919 63.3125 130.84 65.1042 130.84C67.1042 130.84 69.4583 130.919 72.1667 131.07C74.5938 131.21 76.4583 131.278 77.75 131.278C78.0938 131.278 78.2708 131.064 78.2708 130.632C78.2708 130.205 78.0938 129.986 77.75 129.986C74.0938 129.986 71.4062 129.528 69.6875 128.611C67.9792 127.684 67.125 126.174 67.125 124.09C67.125 122.523 67.625 120.523 68.625 118.09L75.9167 100.528H101.417L111.5 122.278C112.276 124.07 112.667 125.465 112.667 126.465C112.667 127.747 112.021 128.653 110.729 129.195C109.448 129.726 107.344 129.986 104.417 129.986C104.135 129.986 104 130.205 104 130.632C104 131.064 104.135 131.278 104.417 131.278C105.568 131.278 107.281 131.21 109.562 131.07C111.99 130.919 113.958 130.84 115.458 130.84C116.75 130.84 118.75 130.919 121.458 131.07C124.318 131.21 126.385 131.278 127.667 131.278C127.958 131.278 128.104 131.064 128.104 130.632Z" fill="white"/>
<path d="M87.1667 12.6458C87.1667 12.2187 87.0625 12 86.8542 12L82.6667 12.1042C80.3854 12.2448 78.6354 12.3125 77.4167 12.3125C76.1354 12.3125 74.4271 12.2448 72.2917 12.1042L68.2083 12C68.0677 12 68 12.2187 68 12.6458C68 13.0625 68.0677 13.2708 68.2083 13.2708C71.2083 13.2708 73.276 14.0208 74.4167 15.5208C75.5677 17.0208 76.1458 19.599 76.1458 23.25V46L78.5 47.5V23.25C78.5 19.599 79.125 17.0208 80.375 15.5208C81.625 14.0208 83.7812 13.2708 86.8542 13.2708C87.0625 13.2708 87.1667 13.0625 87.1667 12.6458Z" fill="white"/>
</svg>
